<?xml version="1.0"?><svg width="175" height="175" xmlns="http://www.w3.org/2000/svg">
 <title>my red check mark - png</title>

 <metadata id="metadata4007">image/svg+xml</metadata>
 <g>
  <title>Layer 1</title>
  <g id="layer1">
   <path fill="#000000" stroke-width="2.857143" stroke-miterlimit="4" id="Checkmark_Vee" d="m33.04409,161.661224c-3.324659,-0.476898 -6.21751,-1.146866 -6.428541,-1.488831c-0.210989,-0.34198 -1.188768,-1.907501 -2.172798,-3.478912c-2.765661,-4.416595 -4.69573,-9.187363 -7.802351,-19.285721c-5.53778,-18.001198 -6.61541,-22.682007 -5.87422,-25.516304c1.14448,-4.376534 11.067049,-10.561165 17.246019,-10.749306c4.98539,-0.151794 5.56538,0.277481 8.465702,6.26561c1.71249,3.535721 4.223217,9.160721 5.57935,12.5c1.35614,3.339287 3.340851,6.071426 4.41048,6.071426c1.069649,0 5.099518,-4.98214 8.955299,-11.071426c3.855728,-6.089279 7.617458,-11.754768 8.359287,-12.589981c0.741783,-0.835197 2.176315,-3.085213 3.187744,-5c4.33699,-8.210556 39.471931,-56.402588 49.927185,-68.481449c2.380356,-2.75 4.32943,-5.475571 4.331276,-6.056841c0.001877,-0.58127 3.378357,-3.243229 7.503349,-5.91551c5.636108,-3.651199 9.632629,-5.060479 16.081284,-5.670679c11.923599,-1.128241 13.04776,-0.04628 8.026581,7.72542c-2.255081,3.490379 -5.31958,7.631899 -6.809982,9.203329c-1.490372,1.57143 -5.911758,7.035711 -9.825272,12.142851c-3.913498,5.107151 -7.819351,9.928589 -8.679665,10.714291c-0.860336,0.785709 -3.07933,3.67857 -4.931168,6.42857c-1.851852,2.75 -3.719368,5.32143 -4.150093,5.714298c-3.735031,3.40678 -43.817169,59.201229 -47.208397,65.714275c-1.022804,1.964279 -2.245483,3.892868 -2.71714,4.285721c-0.471642,0.392838 -4.580822,6.317917 -9.131462,13.166809c-4.550579,6.848831 -8.96574,12.880112 -9.811359,13.40274c-3.099911,1.915848 -10.641251,2.814362 -16.531078,1.969589l-0.000031,0.000031z"/>
  </g>
 </g>
</svg>